<svg width="106" height="25" viewBox="0 0 106 25" fill="none" xmlns="http://www.w3.org/2000/svg">
<path d="M5.6 20.288C4.384 20.288 3.368 20.072 2.552 19.64C1.736 19.208 1.12 18.544 0.704 17.648C0.288 16.736 0.0560001 15.56 0.00800008 14.12L3.68 13.568C3.696 14.4 3.768 15.072 3.896 15.584C4.04 16.096 4.232 16.464 4.472 16.688C4.728 16.912 5.032 17.024 5.384 17.024C5.832 17.024 6.12 16.872 6.248 16.568C6.392 16.264 6.464 15.944 6.464 15.608C6.464 14.808 6.272 14.136 5.888 13.592C5.504 13.032 4.984 12.472 4.328 11.912L2.648 10.448C1.912 9.824 1.288 9.12 0.776 8.336C0.28 7.536 0.032 6.552 0.032 5.384C0.032 3.736 0.52 2.48 1.496 1.616C2.472 0.735999 3.8 0.295999 5.48 0.295999C6.52 0.295999 7.352 0.471999 7.976 0.823999C8.616 1.176 9.096 1.64 9.416 2.216C9.752 2.776 9.976 3.376 10.088 4.016C10.216 4.64 10.288 5.24 10.304 5.816L6.608 6.272C6.592 5.696 6.552 5.2 6.488 4.784C6.44 4.352 6.328 4.024 6.152 3.8C5.976 3.56 5.704 3.44 5.336 3.44C4.936 3.44 4.64 3.608 4.448 3.944C4.272 4.28 4.184 4.616 4.184 4.952C4.184 5.672 4.352 6.264 4.688 6.728C5.04 7.176 5.496 7.648 6.056 8.144L7.664 9.56C8.512 10.28 9.224 11.096 9.8 12.008C10.392 12.92 10.688 14.048 10.688 15.392C10.688 16.304 10.48 17.136 10.064 17.888C9.648 18.624 9.056 19.208 8.288 19.64C7.536 20.072 6.64 20.288 5.6 20.288ZM15.0241 20.24C14.3201 20.24 13.7281 20.072 13.2481 19.736C12.7681 19.4 12.4081 18.976 12.1681 18.464C11.9281 17.936 11.8081 17.4 11.8081 16.856C11.8081 15.992 11.9761 15.264 12.3121 14.672C12.6641 14.08 13.1201 13.584 13.6801 13.184C14.2401 12.784 14.8561 12.448 15.5281 12.176C16.2001 11.888 16.8641 11.632 17.5201 11.408V10.016C17.5201 9.776 17.4961 9.568 17.4481 9.392C17.4001 9.2 17.3201 9.056 17.2081 8.96C17.0961 8.848 16.9281 8.792 16.7041 8.792C16.4801 8.792 16.3041 8.84 16.1761 8.936C16.0641 9.032 15.9841 9.168 15.9361 9.344C15.8881 9.504 15.8561 9.688 15.8401 9.896L15.7441 10.904L12.0961 10.76C12.1761 9.096 12.6161 7.872 13.4161 7.088C14.2321 6.288 15.4481 5.888 17.0641 5.888C18.4721 5.888 19.5201 6.28 20.2081 7.064C20.9121 7.832 21.2641 8.832 21.2641 10.064V16.544C21.2641 17.12 21.2721 17.624 21.2881 18.056C21.3201 18.488 21.3521 18.864 21.3841 19.184C21.4321 19.504 21.4721 19.776 21.5041 20H18.0001C17.9521 19.632 17.8961 19.232 17.8321 18.8C17.7681 18.368 17.7201 18.112 17.6881 18.032C17.5281 18.608 17.2241 19.12 16.7761 19.568C16.3441 20.016 15.7601 20.24 15.0241 20.24ZM16.4161 17.6C16.5761 17.6 16.7201 17.568 16.8481 17.504C16.9921 17.44 17.1201 17.352 17.2321 17.24C17.3441 17.128 17.4401 17.016 17.5201 16.904V13.112C17.2001 13.304 16.9041 13.504 16.6321 13.712C16.3601 13.904 16.1281 14.12 15.9361 14.36C15.7441 14.6 15.5921 14.864 15.4801 15.152C15.3841 15.424 15.3361 15.736 15.3361 16.088C15.3361 16.552 15.4321 16.92 15.6241 17.192C15.8161 17.464 16.0801 17.6 16.4161 17.6ZM26.0392 20.24C25.4792 20.24 24.9992 20.104 24.5992 19.832C24.2152 19.544 23.9272 19.152 23.7352 18.656C23.5432 18.16 23.4472 17.608 23.4472 17V6.128H27.3592V16.544C27.3592 16.88 27.4152 17.144 27.5272 17.336C27.6552 17.512 27.8712 17.6 28.1752 17.6C28.3512 17.6 28.5352 17.56 28.7272 17.48C28.9192 17.384 29.1192 17.28 29.3272 17.168V6.128H33.2152V20H29.3272V18.728C28.8312 19.192 28.3032 19.56 27.7432 19.832C27.1992 20.104 26.6312 20.24 26.0392 20.24ZM35.8529 20V0.559999H39.7409V20H35.8529ZM42.4869 20V0.559999H47.4069C49.1029 0.559999 50.4229 0.775999 51.3669 1.208C52.3109 1.624 52.9749 2.288 53.3589 3.2C53.7429 4.096 53.9349 5.264 53.9349 6.704V13.76C53.9349 15.216 53.7429 16.408 53.3589 17.336C52.9749 18.248 52.3109 18.92 51.3669 19.352C50.4389 19.784 49.1349 20 47.4549 20H42.4869ZM46.7829 17.024H47.4549C48.1109 17.024 48.5829 16.928 48.8709 16.736C49.1589 16.544 49.3349 16.256 49.3989 15.872C49.4789 15.488 49.5189 15.008 49.5189 14.432V5.96C49.5189 5.384 49.4709 4.92 49.3749 4.568C49.2949 4.216 49.1109 3.96 48.8229 3.8C48.5349 3.64 48.0709 3.56 47.4309 3.56H46.7829V17.024ZM60.8694 20.24C59.8614 20.24 58.9974 20.064 58.2774 19.712C57.5574 19.344 57.0054 18.816 56.6214 18.128C56.2374 17.424 56.0454 16.584 56.0454 15.608V10.52C56.0454 9.528 56.2374 8.688 56.6214 8C57.0054 7.312 57.5574 6.792 58.2774 6.44C59.0134 6.072 59.8774 5.888 60.8694 5.888C61.8934 5.888 62.7414 6.064 63.4134 6.416C64.1014 6.768 64.6134 7.288 64.9494 7.976C65.3014 8.664 65.4774 9.512 65.4774 10.52V13.304H59.9094V15.968C59.9094 16.32 59.9494 16.608 60.0294 16.832C60.1094 17.056 60.2214 17.216 60.3654 17.312C60.5094 17.408 60.6774 17.456 60.8694 17.456C61.0614 17.456 61.2294 17.416 61.3734 17.336C61.5334 17.24 61.6534 17.096 61.7334 16.904C61.8294 16.712 61.8774 16.448 61.8774 16.112V14.648H65.4774V15.992C65.4774 17.4 65.0694 18.464 64.2534 19.184C63.4374 19.888 62.3094 20.24 60.8694 20.24ZM59.9094 11.48H61.8774V10.088C61.8774 9.72 61.8294 9.432 61.7334 9.224C61.6534 9.016 61.5334 8.872 61.3734 8.792C61.2294 8.712 61.0534 8.672 60.8454 8.672C60.6534 8.672 60.4854 8.72 60.3414 8.816C60.2134 8.912 60.1094 9.08 60.0294 9.32C59.9494 9.544 59.9094 9.872 59.9094 10.304V11.48ZM71.8788 20.24C70.6628 20.24 69.6468 19.968 68.8308 19.424C68.0308 18.88 67.3748 17.992 66.8628 16.76L69.5268 15.584C69.7828 16.208 70.0788 16.704 70.4148 17.072C70.7668 17.424 71.1508 17.6 71.5668 17.6C71.8708 17.6 72.0948 17.536 72.2388 17.408C72.3988 17.28 72.4788 17.104 72.4788 16.88C72.4788 16.512 72.3348 16.176 72.0468 15.872C71.7748 15.568 71.2788 15.12 70.5588 14.528L69.5508 13.688C68.8148 13.064 68.2308 12.464 67.7988 11.888C67.3828 11.296 67.1748 10.568 67.1748 9.704C67.1748 8.952 67.3668 8.288 67.7508 7.712C68.1508 7.136 68.6788 6.688 69.3348 6.368C69.9908 6.048 70.6948 5.888 71.4468 5.888C72.5988 5.888 73.5588 6.2 74.3268 6.824C75.0948 7.448 75.6388 8.328 75.9588 9.464L73.3908 10.616C73.2948 10.312 73.1588 10.008 72.9828 9.704C72.8068 9.4 72.5988 9.144 72.3588 8.936C72.1188 8.728 71.8468 8.624 71.5428 8.624C71.2868 8.624 71.0788 8.696 70.9188 8.84C70.7748 8.984 70.7028 9.176 70.7028 9.416C70.7028 9.72 70.8708 10.048 71.2068 10.4C71.5588 10.752 72.0388 11.176 72.6468 11.672L73.6308 12.536C74.0308 12.872 74.4228 13.232 74.8068 13.616C75.1908 14 75.5028 14.424 75.7428 14.888C75.9988 15.352 76.1268 15.88 76.1268 16.472C76.1268 17.272 75.9268 17.96 75.5268 18.536C75.1268 19.096 74.5988 19.52 73.9428 19.808C73.3028 20.096 72.6148 20.24 71.8788 20.24ZM77.8027 20V6.128H81.7147V20H77.8027ZM77.7787 3.776V1.064H81.7147V3.776H77.7787ZM88.6663 24.8C87.6263 24.8 86.7143 24.696 85.9303 24.488C85.1623 24.28 84.5623 23.968 84.1303 23.552C83.7143 23.136 83.5063 22.616 83.5063 21.992C83.5063 21.512 83.6103 21.08 83.8183 20.696C84.0423 20.328 84.3463 20.008 84.7303 19.736C85.1303 19.464 85.5783 19.232 86.0742 19.04L87.5863 19.304C87.4103 19.448 87.2423 19.6 87.0823 19.76C86.9383 19.904 86.8183 20.056 86.7223 20.216C86.6263 20.392 86.5783 20.592 86.5783 20.816C86.5783 21.168 86.7783 21.432 87.1783 21.608C87.5783 21.784 88.2423 21.872 89.1703 21.872C89.9383 21.872 90.5303 21.8 90.9463 21.656C91.3783 21.528 91.5943 21.264 91.5943 20.864C91.5943 20.64 91.5383 20.464 91.4263 20.336C91.3143 20.208 91.1303 20.104 90.8743 20.024C90.6183 19.944 90.2663 19.88 89.8183 19.832L86.3623 19.4C85.6263 19.304 85.0423 19.04 84.6103 18.608C84.1783 18.176 83.9623 17.64 83.9623 17C83.9623 16.44 84.1303 15.92 84.4663 15.44C84.8183 14.96 85.2743 14.488 85.8343 14.024L87.2023 14.792C87.0103 14.984 86.8583 15.168 86.7463 15.344C86.6343 15.504 86.5783 15.688 86.5783 15.896C86.5783 16.088 86.6743 16.24 86.8663 16.352C87.0583 16.464 87.4023 16.552 87.8983 16.616L91.1863 17.048C92.3703 17.192 93.2343 17.584 93.7783 18.224C94.3383 18.864 94.6183 19.688 94.6183 20.696C94.6183 21.592 94.4183 22.344 94.0183 22.952C93.6343 23.56 93.0023 24.016 92.1223 24.32C91.2583 24.64 90.1063 24.8 88.6663 24.8ZM88.9062 15.512C87.8183 15.512 86.8983 15.32 86.1463 14.936C85.4103 14.552 84.8503 14.008 84.4663 13.304C84.0983 12.584 83.9143 11.72 83.9143 10.712C83.9143 9.672 84.1063 8.792 84.4902 8.072C84.8743 7.352 85.4343 6.808 86.1703 6.44C86.9223 6.072 87.8343 5.888 88.9062 5.888C89.9303 5.888 90.7943 6.08 91.4983 6.464C92.2023 6.848 92.7383 7.4 93.1063 8.12C93.4903 8.824 93.6823 9.688 93.6823 10.712C93.6823 11.72 93.4983 12.584 93.1303 13.304C92.7783 14.008 92.2503 14.552 91.5463 14.936C90.8423 15.32 89.9623 15.512 88.9062 15.512ZM88.9062 13.184C89.1302 13.184 89.3063 13.144 89.4343 13.064C89.5783 12.968 89.6823 12.824 89.7463 12.632C89.8263 12.44 89.8823 12.184 89.9143 11.864C89.9463 11.544 89.9622 11.16 89.9622 10.712C89.9622 10.248 89.9463 9.864 89.9143 9.56C89.8823 9.24 89.8263 8.984 89.7463 8.792C89.6823 8.584 89.5783 8.44 89.4343 8.36C89.3063 8.264 89.1302 8.216 88.9062 8.216C88.6983 8.216 88.5223 8.264 88.3783 8.36C88.2343 8.44 88.1223 8.576 88.0423 8.768C87.9623 8.96 87.9063 9.216 87.8743 9.536C87.8423 9.856 87.8263 10.248 87.8263 10.712C87.8263 11.16 87.8423 11.544 87.8743 11.864C87.9063 12.168 87.9543 12.424 88.0183 12.632C88.0983 12.824 88.2103 12.968 88.3543 13.064C88.4983 13.144 88.6823 13.184 88.9062 13.184ZM92.8423 8.312L92.0263 7.256C92.2663 6.792 92.5623 6.424 92.9143 6.152C93.2823 5.864 93.7703 5.576 94.3783 5.288L95.3143 7.16C95.1543 7.208 94.9143 7.304 94.5943 7.448C94.2903 7.576 93.9703 7.72 93.6343 7.88C93.3143 8.04 93.0503 8.184 92.8423 8.312ZM96.1771 20V6.128H100.089V7.52C100.601 7.008 101.129 6.608 101.673 6.32C102.233 6.032 102.817 5.888 103.425 5.888C104.001 5.888 104.473 6.032 104.841 6.32C105.225 6.592 105.513 6.976 105.705 7.472C105.897 7.952 105.993 8.504 105.993 9.128V20H102.105V9.68C102.105 9.344 102.049 9.088 101.937 8.912C101.825 8.736 101.617 8.648 101.313 8.648C101.153 8.648 100.961 8.696 100.737 8.792C100.529 8.872 100.313 8.992 100.089 9.152V20H96.1771Z" fill="#EEEEEE"/>
</svg>
